<?xml version="1.0" encoding="utf-8"?>
<!-- Generator: Adobe Illustrator 19.0.0, SVG Export Plug-In . SVG Version: 6.00 Build 0)  -->
<!DOCTYPE svg PUBLIC "-//W3C//DTD SVG 1.1//EN" "http://www.w3.org/Graphics/SVG/1.1/DTD/svg11.dtd">
<svg version="1.1" id="Layer_1" xmlns="http://www.w3.org/2000/svg" xmlns:xlink="http://www.w3.org/1999/xlink" x="0px" y="0px"
	 viewBox="0 0 114 114" style="enable-background:new 0 0 114 114;" xml:space="preserve">
<style type="text/css">
	.st0{fill:#FFFFFF;stroke:#000000;}
</style>
<path id="path2478_1_" class="st0" d="M52.8,37.3c0,0,0.1-6.5,0.1-9.2c0-3,2.8-5.2,6.1-5.2c2.6,0,5.7,1.7,5.9,4.9
	c0.2,2.4,0.2,8.4,0.2,8.4v12.1H52.8V39V37.3z M34.1,74.6c0-1.7,0.6-2.6,1.3-3.1c0.1-0.1,0.2-0.2,0.4-0.2c0.9-0.4,1.9-0.2,1.9-0.2
	c0.1,0.7,0,2.1,0,2.1c0,3.1-1.5,3.9-3.6,3.8C34.1,76.2,34.1,74.6,34.1,74.6z M65.1,65c0,2.6-0.4,6.7-3.8,10.6
	c-3.1,3.6-7.2,4.8-10.7,5.9c-4.2,1.2-10.8,0.9-14.3-1.4c-0.9-0.7-1.6-1.2-1.9-1.9c1.1,0.4,2.7,0.4,3.9,0.4c6.5,0,14.3-2.4,14.3-10.1
	V55.7l0,0v-1.4H65L65.1,65L65.1,65z M65.1,81.3c0,5.8,4.2,9.3,9.2,11.9L89,82.9c0,0-1.6-3.2-1.6-2.7c0,0.6,0,1.3-0.4,2
	c-0.6,0.9-1.9,1.4-3.3,1.4c-1.6,0-3.3-0.8-3.3-2.6l-0.1-4.7l0,0V47.9l0,0c0,0,0-9.8,0-17.5s3.9-7.9,3.9-7.9v-0.8
	c-8.6-0.3-10-9.4-10-9.4h-0.8c-2.3,3.6-8.9,6-15.4,7.4C46.4,21.8,37.6,21.4,37.6,33l0,0l0,0v34.4l0,0c0,0.6,0,1,0,1.5
	c-0.8-1-2.9-3-8.8-2.3c-5.9,0.8-7.5,5.2-7.8,6.5c-0.8,2.4-0.9,9.5,2,13.4c2.6,3.5,7.1,7.5,17.3,6.3S57,85.6,60.1,82.3
	c2.5-2.5,4-4.5,4.9-5.9L65.1,81.3"/>
</svg>
