<?xml version="1.0" encoding="utf-8"?>
<!-- Generator: Adobe Illustrator 19.0.0, SVG Export Plug-In . SVG Version: 6.00 Build 0)  -->
<!DOCTYPE svg PUBLIC "-//W3C//DTD SVG 1.1//EN" "http://www.w3.org/Graphics/SVG/1.1/DTD/svg11.dtd">
<svg version="1.1" id="Layer_1" xmlns="http://www.w3.org/2000/svg" xmlns:xlink="http://www.w3.org/1999/xlink" x="0px" y="0px"
	 viewBox="48 -48 160 160" style="enable-background:new 48 -48 160 160;" xml:space="preserve">
<style type="text/css">
	.st0{fill:#FFFFFF;stroke:#000000;stroke-miterlimit:10;}
	.st1{stroke:#FFFFFF;}
</style>
<circle class="st0" cx="128.5" cy="31.5" r="75.5"/>
<path id="path2478_1_" class="st1" d="M122.6,12.2c0,0,0.1-6.5,0.1-9.2c0-3,2.8-5.2,6.1-5.2c2.6,0,5.7,1.7,5.9,4.9
	c0.2,2.4,0.2,8.4,0.2,8.4v12.1h-12.4v-9.3V12.2z M104,49.5c0-1.7,0.6-2.6,1.3-3.1c0.1-0.1,0.2-0.2,0.4-0.2c0.9-0.4,1.9-0.2,1.9-0.2
	c0.1,0.7,0,2.1,0,2.1c0,3.1-1.5,3.9-3.6,3.8C104,51.1,104,49.5,104,49.5z M135,40c0,2.6-0.4,6.7-3.8,10.6c-3.1,3.6-7.2,4.8-10.7,5.9
	c-4.2,1.2-10.8,0.9-14.3-1.4c-0.9-0.7-1.6-1.2-1.9-1.9c1.1,0.4,2.7,0.4,3.9,0.4c6.5,0,14.3-2.4,14.3-10.1V30.7l0,0v-1.4h12.4L135,40
	L135,40z M135,56.2c0,5.8,4.2,9.3,9.2,11.9l14.7-10.3c0,0-1.6-3.2-1.6-2.7c0,0.6,0,1.3-0.4,2c-0.6,0.9-1.9,1.4-3.3,1.4
	c-1.6,0-3.3-0.8-3.3-2.6l-0.1-4.7l0,0V22.8l0,0c0,0,0-9.8,0-17.5s3.9-7.9,3.9-7.9v-0.8c-8.6-0.3-10-9.4-10-9.4h-0.8
	c-2.3,3.6-8.9,6-15.4,7.4c-11.6,2.3-20.5,1.9-20.5,13.4l0,0l0,0v34.4l0,0c0,0.6,0,1,0,1.5c-0.8-1-2.9-3-8.8-2.3
	c-5.9,0.8-7.5,5.2-7.8,6.5c-0.8,2.4-0.9,9.5,2,13.4c2.6,3.5,7.1,7.6,17.3,6.3c10.2-1.2,16.8-7.3,19.9-10.6c2.5-2.5,4-4.5,4.9-5.9
	L135,56.2"/>
</svg>
